<svg xmlns="http://www.w3.org/2000/svg" data-name="Layer 1" viewBox="0 0 70 70" x="0px" y="0px">
    <path fill="current" stroke="current" d="M65,6.4a1,1,0,0,0-1.37,0l-4,4a1,1,0,0,0-.19.29A11.86,11.86,0,0,0,46.26,24.33l.11.69.69.11a12,12,0,0,0,10.32-3.32,11.93,11.93,0,0,0,3.37-9.89,1.08,1.08,0,0,0,.29-.2l4-4A1,1,0,0,0,65,6.4Zm-9,14a10,10,0,0,1-7.93,2.87,10,10,0,0,1,10.8-10.8A10,10,0,0,1,56,20.44Z"/>
    <path fill="current" stroke="current" d="M60.93,32.41H57.06a12.18,12.18,0,0,0-14.31-3.77,12.09,12.09,0,0,0,1-4.66A12.33,12.33,0,0,0,39,14.34V10.47a1,1,0,1,0-1.94,0v3.87A12.26,12.26,0,0,0,37.44,34a12.27,12.27,0,0,0,19.62.39h3.87a1,1,0,1,0,0-1.93ZM38,32A10.35,10.35,0,0,1,38,16,10.35,10.35,0,0,1,38,32Zm9.39,5.17a10.38,10.38,0,0,1-8-3.75,10.35,10.35,0,0,1,15.93,0A10.42,10.42,0,0,1,47.41,37.12Z"/>
    <path fill="current" stroke="current" d="M49.75,43.58H45.88a12.16,12.16,0,0,0-14.3-3.77,12.07,12.07,0,0,0,.94-4.65,12.36,12.36,0,0,0-4.7-9.65V21.64a1,1,0,0,0-1.94,0v3.87a12.26,12.26,0,0,0,.39,19.61,12.26,12.26,0,0,0,19.61.39h3.87a1,1,0,1,0,0-1.93Zm-22.9-.46a10.35,10.35,0,0,1,0-15.93,10.35,10.35,0,0,1,0,15.93Zm9.39,5.17a10.44,10.44,0,0,1-8-3.74,10.35,10.35,0,0,1,15.93,0A10.41,10.41,0,0,1,36.24,48.29Z"/>
    <path fill="current" stroke="current" d="M38.62,54.71H34.75a12.16,12.16,0,0,0-14.3-3.77,12.16,12.16,0,0,0-3.77-14.3V32.77a1,1,0,1,0-1.93,0v3.87a12.19,12.19,0,0,0-3,15.78,3.79,3.79,0,0,0-.38.32,5.19,5.19,0,0,0-.61,6.57L5.57,64.46a1,1,0,0,0,0,1.37.94.94,0,0,0,.68.28,1,1,0,0,0,.69-.28l5.14-5.15a5.18,5.18,0,0,0,2.91.9,5.11,5.11,0,0,0,3.66-1.52c.12-.12.22-.25.33-.37a12.17,12.17,0,0,0,15.77-3h3.87a1,1,0,0,0,0-1.94ZM15.72,38.32a10.35,10.35,0,0,1,0,15.93,10.35,10.35,0,0,1,0-15.93Zm1.57,20.37a3.32,3.32,0,0,1-4.59,0,3.24,3.24,0,0,1,0-4.58l.11-.09a12,12,0,0,0,2.33,2.23,11.85,11.85,0,0,0,2.24,2.34A.81.81,0,0,0,17.29,58.69Zm7.82.73a10.44,10.44,0,0,1-8-3.74,10.35,10.35,0,0,1,15.93,0A10.42,10.42,0,0,1,25.11,59.42Z"/>
</svg>