<svg xmlns="http://www.w3.org/2000/svg"
    xmlns:xlink="http://www.w3.org/1999/xlink" version="1.1" x="0px" y="0px" viewBox="0 0 100 100" style="enable-background:new 0 0 100 100;" xml:space="preserve">
    <path fill="current" stroke="current" strokeWidth="2" d="M11.859,76.542L19.341,89.5c0.179,0.31,0.509,0.5,0.866,0.5h14.962c0.357,0,0.688-0.19,0.866-0.5l7.405-12.826h8.782v4.365  c0,0.552,0.447,1,1,1s1-0.448,1-1v-4.365h3.297c0.357,0,0.688-0.19,0.866-0.5l7.193-12.458h8.155  c-0.018,0.076-0.046,0.148-0.046,0.229v10.297c0,0.552,0.447,1,1,1s1-0.448,1-1V63.946c0-0.081-0.028-0.154-0.046-0.229h4.649  c0.357,0,0.688-0.19,0.866-0.5l7.481-12.958c0.179-0.31,0.179-0.69,0-1l-7.193-12.458l7.193-12.458c0.179-0.31,0.179-0.69,0-1  l-7.481-12.958c-0.179-0.31-0.509-0.5-0.866-0.5H65.327c-0.357,0-0.688,0.19-0.866,0.5l-7.192,12.458H43.228l-7.193-12.458  c-0.179-0.31-0.509-0.5-0.866-0.5H20.207c-0.357,0-0.688,0.19-0.866,0.5l-7.481,12.958c-0.179,0.31-0.179,0.69,0,1l2.656,4.6  c-0.005,0.04-0.023,0.075-0.023,0.116v16.328c0,0.552,0.447,1,1,1s1-0.448,1-1V32.367l2.849,4.934c0.179,0.31,0.509,0.5,0.866,0.5  h6.48v13.082c0,0.552,0.447,1,1,1s1-0.448,1-1V37.801h5.811l6.904,11.958l-7.117,12.326H20.207c-0.357,0-0.688,0.19-0.866,0.5  l-7.481,12.958C11.681,75.852,11.681,76.232,11.859,76.542z M36.277,36.882l6.951-12.038h13.714l6.904,11.958l-6.904,11.958H43.135  L36.277,36.882z M79.713,61.716H65.904l-6.903-11.958l6.903-11.958h13.809l6.904,11.958L79.713,61.716z M65.904,11.885h13.809  l6.904,11.958l-6.904,11.958H65.904l-6.903-11.958L65.904,11.885z M13.88,23.843l6.904-11.958h13.808l6.858,11.877l-6.951,12.038  H20.784L13.88,23.843z M43.135,50.759h13.808l6.904,11.958l-6.904,11.958H43.135L36.23,62.716L43.135,50.759z M20.784,64.084h13.808  l6.904,11.958L34.592,88H20.784L13.88,76.042L20.784,64.084z"/>
    <path fill="current" stroke="current" d="M53.223,84.612c-0.553,0-1,0.448-1,1V89c0,0.552,0.447,1,1,1s1-0.448,1-1v-3.388C54.223,85.06,53.775,84.612,53.223,84.612z  "/>
    <path fill="current" stroke="current" d="M16.492,53.339v-2.726c0-0.552-0.447-1-1-1s-1,0.448-1,1v2.726c0,0.552,0.447,1,1,1S16.492,53.891,16.492,53.339z"/>
    <path fill="current" stroke="current" d="M66.25,70.599V89c0,0.552,0.447,1,1,1s1-0.448,1-1V70.599c0-0.552-0.447-1-1-1S66.25,70.046,66.25,70.599z"/>
    <path fill="current" stroke="current" d="M74.688,77.799c-0.553,0-1,0.448-1,1v4.22c0,0.552,0.447,1,1,1s1-0.448,1-1v-4.22C75.688,78.247,75.24,77.799,74.688,77.799  z"/>
</svg>