<svg xmlns="http://www.w3.org/2000/svg" data-name="Layer 1" viewBox="0 0 512 512" x="0px" y="0px">
    <path fill="current" stroke="current" d="M197.24,268.11l38.09-62.74v0l0,0a5.6,5.6,0,0,0,.36-.74l.08-.24c.06-.2.12-.41.16-.61s0-.2,0-.29a3.49,3.49,0,0,0,0-.64.76.76,0,0,0,0-.15s0-.08,0-.12a4.85,4.85,0,0,0-.11-.75.59.59,0,0,0,0-.13,4.74,4.74,0,0,0-1.15-2.13l-42.12-45.2a4.79,4.79,0,0,0-2.47-1.42l-81.89-18.52-.21,0a3.93,3.93,0,0,0-.48-.06l-.46,0h-.2a2.89,2.89,0,0,0-.29,0l-.44.07-.5.14-.39.14a4,4,0,0,0-.46.24l-.36.22a3.57,3.57,0,0,0-.38.3c-.12.1-.24.2-.35.31a1.06,1.06,0,0,0-.15.15l-65.43,73.6a4.82,4.82,0,0,0,.4,6.82l73.59,65.43,0,0a4.39,4.39,0,0,0,.51.37c.07.05.14.11.21.15a5.2,5.2,0,0,0,.53.26l.38.15a4.14,4.14,0,0,0,1.26.24l.28,0h0a4.74,4.74,0,0,0,.75-.06l77.73-12.5A4.81,4.81,0,0,0,197.24,268.11ZM186.6,162l33.88,36.36-37.89,1.29-58.14-51.7ZM115,271.29l-66.37-59,59-66.38,66.38,59Zm13-.1,55.05-61.92,39.41-1.34-32.33,53.26Z"/>
    <path fill="current" stroke="current" d="M474.7,173.22,426.19,50.38a4.82,4.82,0,0,0-4.17-3,4.74,4.74,0,0,0-1.09-2.77,4.82,4.82,0,0,0-3.59-1.76L292.49,39.45a4.62,4.62,0,0,0-4.91,4.14l-16.87,118.1c0,.05,0,.11,0,.16s0,.25,0,.38,0,.35,0,.52,0,.25.05.37a3.33,3.33,0,0,0,.11.53c0,.11.06.22.1.34a5.45,5.45,0,0,0,.25.55c0,.07.05.14.08.2l48.65,86.31a4.83,4.83,0,0,0,3.34,2.38l101,18.29h.1a4.63,4.63,0,0,0,.74.07h0a5.24,5.24,0,0,0,1-.11l.19-.05a4.67,4.67,0,0,0,.91-.32s0,0,.08,0,.08-.06.13-.08a6.65,6.65,0,0,0,.56-.36,1.18,1.18,0,0,0,.18-.13,4.4,4.4,0,0,0,.58-.56c.06-.06.11-.13.17-.2a4.07,4.07,0,0,0,.33-.48l.15-.25.07-.14,45.13-92A4.84,4.84,0,0,0,474.7,173.22Zm-178.16-124,115,3.11L387.89,194l-107-35ZM285.8,170.82l102.51,33.49,28.12,56.18-89.2-16.17ZM425,256.08l-28.28-56.5L419.91,60.77l45,114Z"/>
    <path fill="current" stroke="current" d="M319.55,385a1.76,1.76,0,0,0-.09-.2,4.12,4.12,0,0,0-.32-.67,4,4,0,0,0-.23-.34,4.15,4.15,0,0,0-.24-.34l-60.15-71a4.65,4.65,0,0,0-3.86-1.7L199,312.88a4.82,4.82,0,0,0-4.49,3.62l-18.86,73a.64.64,0,0,1,0,.07c0,.12-.06.23-.07.34a5,5,0,0,0-.06.54v0a4,4,0,0,0,0,.85,1.1,1.1,0,0,0,0,.18,5.51,5.51,0,0,0,.2.8s0,0,0,.05a4.74,4.74,0,0,0,.34.72,1,1,0,0,0,.08.14,5.14,5.14,0,0,0,.48.67l.08.08c.1.1.19.21.3.31l84.36,77a4.84,4.84,0,0,0,3.26,1.27,5,5,0,0,0,.67-.05,4.82,4.82,0,0,0,3.44-2.24l50.33-81.15c0-.06.05-.12.08-.17a4.41,4.41,0,0,0,.28-.58c0-.12.09-.23.13-.34a5.52,5.52,0,0,0,.15-.68c0-.1,0-.2.06-.3a4.87,4.87,0,0,0-.23-2A.07.07,0,0,0,319.55,385ZM202.93,322.39l49.74-1.88,46.76,55.17-50.12-18.49-.07,0a5.86,5.86,0,0,0-.72-.19l-.21,0a4.49,4.49,0,0,0-.64,0l-.42,0H247l-.16,0a4.72,4.72,0,0,0-.54.13l-.39.13-.15.05-58.31,25.06Zm-13.86,69.77,54.66-23.49,11.69,84.08Zm76.66,64.66-12.2-87.77,54.23,20Z"/>
</svg>